# xmcd
#
# Track frame offsets:
#	150
#	35901
#	63238
#	81527
#	110316
#	130478
#	152900
#	182690
#	205501
#	228280
#
# Disc length: 3313 seconds
#
# Revision: 0
# Processed by: cddbd v1.5.2PL0 Copyright (c) Steve Scherf et al.
# Submitted via: EZCDAudioConverter 8.0.2.1
#
DISCID=860cef0a
DTITLE=Duy Khánh - The Bets Of. Xin Anh Giữ Trọn Tình Quê [CD4)
DYEAR=2000
DGENRE=
TTITLE0=Duy Khánh, Hương Lan - Huyền sử một người mang tên Quốc
TTITLE1=Duy Khánh - Quán nửa khuya
TTITLE2=Duy Khánh - Tình em biển rộng sông dài
TTITLE3=Duy Khánh - Đưa em vào hạ
TTITLE4=Duy Khánh - Bao giờ em quên
TTITLE5=Duy Khánh - Tám nẻo đường thành
TTITLE6=Duy Khánh - Giã từ vũ khí
TTITLE7=Duy Khánh - Bài hương ca vô tận
TTITLE8=Duy Khánh - Mười năm tái ngộ
TTITLE9=Duy Khánh - Mấy nhịp cầu tre
EXTD=
EXTT0=
EXTT1=
EXTT2=
EXTT3=
EXTT4=
EXTT5=
EXTT6=
EXTT7=
EXTT8=
EXTT9=
PLAYORDER=
